<svg width="50" height="50" viewBox="0 0 50 50" fill="none" xmlns="http://www.w3.org/2000/svg">
<path d="M6.24967 43.75C5.10384 43.75 4.12329 43.3424 3.30801 42.5271C2.49273 41.7118 2.0844 40.7306 2.08301 39.5833V13.5417H6.24967V39.5833H40.6247V43.75H6.24967ZM14.583 35.4167C13.4372 35.4167 12.4566 35.009 11.6413 34.1937C10.8261 33.3785 10.4177 32.3972 10.4163 31.25V10.4167C10.4163 9.27083 10.8247 8.29028 11.6413 7.475C12.458 6.65972 13.4386 6.25139 14.583 6.25H43.7497C44.8955 6.25 45.8768 6.65833 46.6934 7.475C47.5101 8.29167 47.9177 9.27222 47.9163 10.4167V31.25C47.9163 32.3958 47.5087 33.3771 46.6934 34.1937C45.8781 35.0104 44.8969 35.4181 43.7497 35.4167H14.583ZM29.1663 25.625L43.7497 15.4688V10.4167L29.1663 20.5208L14.583 10.4167V15.4688L29.1663 25.625Z" fill="#A6A182" style="fill:#A6A182;fill:color(display-p3 0.6510 0.6314 0.5098);fill-opacity:1;"/>
</svg>
