<svg width="50" height="50" viewBox="0 0 50 50" fill="none" xmlns="http://www.w3.org/2000/svg">
<path fill-rule="evenodd" clip-rule="evenodd" d="M34.4834 46.1106C31.4834 46.0001 22.9813 44.8251 14.0771 35.9231C5.17504 27.0189 4.00212 18.5189 3.88962 15.5168C3.72296 10.9418 7.22712 6.49806 11.275 4.76264C11.7625 4.55216 12.2963 4.47202 12.8241 4.53009C13.3518 4.58817 13.8554 4.78245 14.2855 5.09389C17.6188 7.52306 19.9188 11.1981 21.8938 14.0876C22.3283 14.7225 22.5141 15.495 22.4158 16.2581C22.3174 17.0211 21.9418 17.7212 21.3605 18.2251L17.2959 21.2439C17.0995 21.3857 16.9613 21.594 16.9069 21.83C16.8525 22.066 16.8856 22.3138 17 22.5272C17.9209 24.2001 19.5584 26.6918 21.4334 28.5668C23.3084 30.4418 25.9188 32.1876 27.7084 33.2126C27.9328 33.3386 28.1969 33.3738 28.4464 33.311C28.6959 33.2483 28.912 33.0923 29.05 32.8751L31.6959 28.8481C32.1823 28.2019 32.8999 27.769 33.6983 27.6401C34.4968 27.5112 35.3141 27.6962 35.9792 28.1564C38.9105 30.1856 42.3313 32.446 44.8355 35.6522C45.1722 36.0854 45.3864 36.601 45.4556 37.1452C45.5249 37.6895 45.4467 38.2423 45.2292 38.746C43.4855 42.8147 39.073 46.2793 34.4834 46.1106Z" fill="#A6A182" style="fill:#A6A182;fill:color(display-p3 0.6510 0.6314 0.5098);fill-opacity:1;"/>
</svg>
